<svg xmlns="http://www.w3.org/2000/svg" version="1.1" xmlns:xlink="http://www.w3.org/1999/xlink" xmlns:svgjs="http://svgjs.dev/svgjs" width="2000" height="2250" viewBox="0 0 2000 2250"><g transform="matrix(1,0,0,1,3.410605131648481e-13,0)"><svg viewBox="0 0 320 360" data-background-color="#f9f9f9" preserveAspectRatio="xMidYMid meet" height="2250" width="2000" xmlns="http://www.w3.org/2000/svg" xmlns:xlink="http://www.w3.org/1999/xlink"><g id="tight-bounds" transform="matrix(1,0,0,1,0,0)"><svg viewBox="0 0 320 360" height="360" width="320"><g><svg></svg></g><g><svg viewBox="0 0 320 360" height="360" width="320"><g><path d="M20.961 227.22l3.726 4.658-1.863-6.056c-0.466-2.795-3.726 0.466-1.863 1.398M25.153 224.425c1.397 2.329 2.795 4.658 2.795 6.987 0 3.261 2.795 4.658 5.123 5.589-3.261-3.726-5.124-13.974-7.918-12.576M204.017 26.929c7.918 0 15.371-0.932 23.756 0.931 20.495 5.124 37.729 15.371 49.374 29.811l32.606 52.169c1.397 13.042 4.192 27.482 3.726 43.319 3.261 0 2.795-4.658 6.521-5.59-3.726 9.316-5.59 20.961-6.521 34.469-2.329-7.453 0-18.632 0.466-24.687-3.261 5.124-5.124 1.397-5.124-0.932 0.466-3.726-1.397-3.261-2.795-4.658-5.124-4.658-8.384-9.782-12.11-17.7 2.329-6.055 2.795-14.905-4.658-19.563-2.329-1.397-5.124-3.726-6.521-7.453-1.863-5.124-5.124-11.179-4.193-19.097 0.466-2.329-6.987 5.124-11.179 1.863-18.166-12.576-36.332-27.016-58.224-39.127-11.645 0-20.029-4.192-24.221-9.316-3.726-4.658-0.932-10.713 4.658-11.179 3.261 0 6.987-0.932 9.782 0.932 0.466-1.863 2.329-4.192 4.657-4.192M157.904 16.215l0.932 0.466c4.658 0.932 6.987 7.453 12.11 5.124 0 3.261 0.466 6.521-0.466 8.85-1.397 3.726-5.59 3.726-8.85 3.726-31.208-1.863-49.374 11.179-68.471 22.358-5.124 3.261-10.713 5.59-14.906 9.782-20.029 18.632-41.921 35.866-47.045 70.335l-4.192 38.195c-0.466 4.192-5.124 8.384-4.192 13.508l3.26 22.824c-3.261-3.261-5.124 0.932-4.192 2.795 0.466 1.397 2.329 6.055 5.124 1.863 3.726 6.987 7.453 20.495 12.576 26.55 15.837 18.632 36.332 35.4 53.101 52.169 4.192-0.932 7.453-0.932 8.384-3.727 1.397 2.795-1.397 5.59-3.726 6.056 7.453 4.658 15.837 8.85 27.016 9.781 14.44 0.932 27.948 3.261 40.524 6.522 6.521-1.863 13.042-2.795 20.029-3.261 2.329 0 3.726-3.726 6.521-4.658l0.466-4.658c2.795 4.192 2.329-1.397 0.466-4.192 3.261 2.795 4.192 5.124 5.589 6.987 0-1.397 3.726-6.521 3.727-0.466l0.931-6.055c1.397-0.932 1.863 5.124 3.261 0.931 1.397-4.192 4.192-0.932 6.987-2.329-0.932 1.863-0.466 5.59 2.794 3.261l3.727-3.261c2.329 5.59 6.055 3.261 7.918 2.329 20.495-13.042 40.99-28.413 60.553-43.784l-0.466 6.055 2.329-7.453c2.329 2.329 4.192 0.466 5.124-0.931 2.795-4.658 6.521-9.316 12.577-13.508-7.453 20.029-16.303 35.866-27.482 48.908l-4.658 5.59c0 3.261-0.932 7.453-4.658 7.918-1.863 0.466-5.59-0.932-8.384 1.863-1.397 1.863 3.261 5.59-0.466 2.795-3.261-2.329-6.521 0-10.248 0.932-2.795 0.932 1.863 3.726 2.795 5.589 0.932 1.863 1.863 3.726 1.398 6.056l-5.124-5.59c-6.055 3.261-9.782 9.316-14.906 13.974-2.329 1.863-1.397 5.124-1.397 7.918-3.261 0-6.987-0.932-8.85 0.932-1.397 1.863-0.932 4.658-0.932 7.453-4.658-0.466-5.124-7.453-9.315-6.056-4.192 0.932-8.85 1.397-12.577 3.727 2.795 5.59-4.658 2.329-3.726 3.26-6.987-4.192-13.042-7.453-20.495-4.658-15.837-5.124-35.4-2.795-49.84-0.931 0-2.329 0.466-4.658-0.466-5.124-0.932 2.329-3.726 1.397-3.26 1.397-8.85-6.055-17.7-9.782-27.016-14.905-8.384 0.932-16.303-3.261-18.632-5.59-6.521-6.055-13.974-2.795-20.029-4.192-13.042-3.261-17.7-16.769-19.098-26.084-0.932-4.658-4.658-6.521-6.055-6.056-6.055-19.563-15.371-37.263-22.824-55.429-1.863-4.658-1.397-9.316-1.397-14.44 2.329 0.932 4.658 0.466 4.192-2.794-2.329-15.371-7.918-27.016-13.974-38.195 3.261-15.837 3.726-34.469 11.179-48.443 6.521-12.576 18.632-19.098 27.016-29.811 2.795-3.726 2.795-8.85 5.59-12.11 9.316-9.316 18.632-19.098 28.879-27.482 4.658-3.726 10.247 0 17.234-1.397 2.329-8.384 11.645-15.837 20.495-13.508 3.726 0.932 11.179-8.85 13.508-9.782 3.726-1.397 1.863 3.726 1.863 6.987 8.85-6.987 20.961-10.713 32.14-14.906" fill="#ffffff" fill-rule="nonzero" stroke="none" stroke-width="1" stroke-linecap="butt" stroke-linejoin="miter" stroke-miterlimit="10" stroke-dasharray="" stroke-dashoffset="0" font-family="none" font-weight="none" font-size="none" text-anchor="none" style="mix-blend-mode: normal" data-fill-palette-color="tertiary"></path></g><g transform="matrix(1,0,0,1,64,167.97458869522723)"><svg viewBox="0 0 192 24.05082260954553" height="24.05082260954553" width="192"><g><svg viewBox="0 0 192 24.05082260954553" height="24.05082260954553" width="192"><g><svg viewBox="0 0 192 24.05082260954553" height="24.05082260954553" width="192"><g id="textblocktransform"><svg viewBox="0 0 192 24.05082260954553" height="24.05082260954553" width="192" id="textblock"><g><svg viewBox="0 0 192 24.05082260954553" height="24.05082260954553" width="192"><g transform="matrix(1,0,0,1,0,0)"><svg width="192" viewBox="0.4 -37.7 306.92 38.45" height="24.05082260954553" data-palette-color="#030303"><path d="M10.2-27.15Q14.9-27.15 18.15-24.05L18.15-24.05 15.8-20.7Q14.4-21.7 13.15-22.2 11.9-22.7 10.6-22.7L10.6-22.7Q9.15-22.7 8.33-21.93 7.5-21.15 7.5-19.8L7.5-19.8Q7.5-18.45 8.43-17.63 9.35-16.8 12.15-15.7L12.15-15.7Q15.6-14.35 17.25-12.5 18.9-10.65 18.9-7.55L18.9-7.55Q18.9-3.7 16.2-1.48 13.5 0.75 9.35 0.75L9.35 0.75Q6.65 0.75 4.38-0.23 2.1-1.2 0.4-2.95L0.4-2.95 3.4-6.25Q6.2-3.8 9.1-3.8L9.1-3.8Q10.75-3.8 11.7-4.67 12.65-5.55 12.65-7.1L12.65-7.1Q12.65-8.25 12.25-8.97 11.85-9.7 10.85-10.33 9.85-10.95 7.85-11.7L7.85-11.7Q4.4-13.05 2.93-14.85 1.45-16.65 1.45-19.45L1.45-19.45Q1.45-22.8 3.83-24.98 6.2-27.15 10.2-27.15L10.2-27.15ZM39.65-6.4Q39.65-5.1 40-4.48 40.35-3.85 41.15-3.45L41.15-3.45 39.9 0.65Q37.85 0.4 36.62-0.45 35.4-1.3 34.8-3.05L34.8-3.05Q32.5 0.75 28.35 0.75L28.35 0.75Q25.05 0.75 23.1-1.48 21.15-3.7 21.15-7.4L21.15-7.4Q21.15-11.7 23.82-13.95 26.5-16.2 31.6-16.2L31.6-16.2 33.65-16.2 33.65-18.05Q33.65-20.55 32.77-21.58 31.9-22.6 29.95-22.6L29.95-22.6Q27.6-22.6 24.1-21.3L24.1-21.3 22.7-25.3Q24.7-26.2 26.85-26.68 29-27.15 30.95-27.15L30.95-27.15Q39.65-27.15 39.65-18.35L39.65-18.35 39.65-6.4ZM30-3.7Q32.4-3.7 33.65-7L33.65-7 33.65-12.55 32.2-12.55Q29.65-12.55 28.47-11.4 27.3-10.25 27.3-7.85L27.3-7.85Q27.3-5.8 28-4.75 28.7-3.7 30-3.7L30-3.7ZM45.45-37.05L51.6-37.7 51.6 0 45.45 0 45.45-37.05ZM58.95-26.45L64.95-26.45 57.95-14.75 65.55 0 58.95 0 51.85-14.45 58.95-26.45ZM86.24-26.45L86.24 0 80.89 0 80.59-3.35Q79.34-1.3 77.79-0.28 76.24 0.75 74.19 0.75L74.19 0.75Q71.29 0.75 69.62-1.3 67.94-3.35 67.94-6.65L67.94-6.65 67.94-26.45 74.09-26.45 74.09-7Q74.09-3.9 76.19-3.9L76.19-3.9Q77.39-3.9 78.34-4.83 79.29-5.75 80.09-7.45L80.09-7.45 80.09-26.45 86.24-26.45ZM103.59-27.1Q104.74-27.1 105.64-26.75L105.64-26.75 104.64-20.85Q103.64-21.1 102.79-21.1L102.79-21.1Q100.89-21.1 99.79-19.45 98.69-17.8 98.09-14.55L98.09-14.55 98.09 0 91.94 0 91.94-26.45 97.29-26.45 97.74-21.85Q99.59-27.1 103.59-27.1L103.59-27.1ZM125.39-6.4Q125.39-5.1 125.74-4.48 126.09-3.85 126.89-3.45L126.89-3.45 125.64 0.65Q123.59 0.4 122.36-0.45 121.14-1.3 120.54-3.05L120.54-3.05Q118.24 0.75 114.09 0.75L114.09 0.75Q110.79 0.75 108.84-1.48 106.89-3.7 106.89-7.4L106.89-7.4Q106.89-11.7 109.56-13.95 112.24-16.2 117.34-16.2L117.34-16.2 119.39-16.2 119.39-18.05Q119.39-20.55 118.51-21.58 117.64-22.6 115.69-22.6L115.69-22.6Q113.34-22.6 109.84-21.3L109.84-21.3 108.44-25.3Q110.44-26.2 112.59-26.68 114.74-27.15 116.69-27.15L116.69-27.15Q125.39-27.15 125.39-18.35L125.39-18.35 125.39-6.4ZM115.74-3.7Q118.14-3.7 119.39-7L119.39-7 119.39-12.55 117.94-12.55Q115.39-12.55 114.21-11.4 113.04-10.25 113.04-7.85L113.04-7.85Q113.04-5.8 113.74-4.75 114.44-3.7 115.74-3.7L115.74-3.7ZM150.43-27.15Q155.43-27.15 158.21-23.65 160.98-20.15 160.98-13.25L160.98-13.25Q160.98-6.65 158.18-2.95 155.38 0.75 150.43 0.75L150.43 0.75Q145.48 0.75 142.68-2.88 139.88-6.5 139.88-13.25L139.88-13.25Q139.88-19.95 142.68-23.55 145.48-27.15 150.43-27.15L150.43-27.15ZM150.43-22.5Q148.28-22.5 147.28-20.38 146.28-18.25 146.28-13.25L146.28-13.25Q146.28-8.2 147.28-6.08 148.28-3.95 150.43-3.95L150.43-3.95Q152.58-3.95 153.58-6.08 154.58-8.2 154.58-13.25L154.58-13.25Q154.58-18.3 153.58-20.4 152.58-22.5 150.43-22.5L150.43-22.5ZM189.18-27.15Q191.83-27.15 193.43-25.1 195.03-23.05 195.03-19.6L195.03-19.6 195.03 0 188.98 0 188.98-18.95Q188.98-20.85 188.48-21.68 187.98-22.5 187.03-22.5L187.03-22.5Q185.08-22.5 183.28-18.8L183.28-18.8 183.28 0 177.28 0 177.28-18.95Q177.28-22.5 175.38-22.5L175.38-22.5Q173.33-22.5 171.58-18.8L171.58-18.8 171.58 0 165.53 0 165.53-26.45 170.88-26.45 171.28-23.05Q173.88-27.15 177.53-27.15L177.53-27.15Q179.38-27.15 180.73-26 182.08-24.85 182.78-22.75L182.78-22.75Q185.43-27.15 189.18-27.15L189.18-27.15ZM217.43-6.4Q217.43-5.1 217.78-4.48 218.13-3.85 218.93-3.45L218.93-3.45 217.68 0.65Q215.63 0.4 214.4-0.45 213.18-1.3 212.58-3.05L212.58-3.05Q210.28 0.75 206.13 0.75L206.13 0.75Q202.83 0.75 200.88-1.48 198.93-3.7 198.93-7.4L198.93-7.4Q198.93-11.7 201.6-13.95 204.28-16.2 209.38-16.2L209.38-16.2 211.43-16.2 211.43-18.05Q211.43-20.55 210.55-21.58 209.68-22.6 207.73-22.6L207.73-22.6Q205.38-22.6 201.88-21.3L201.88-21.3 200.48-25.3Q202.48-26.2 204.63-26.68 206.78-27.15 208.73-27.15L208.73-27.15Q217.43-27.15 217.43-18.35L217.43-18.35 217.43-6.4ZM207.78-3.7Q210.18-3.7 211.43-7L211.43-7 211.43-12.55 209.98-12.55Q207.43-12.55 206.25-11.4 205.08-10.25 205.08-7.85L205.08-7.85Q205.08-5.8 205.78-4.75 206.48-3.7 207.78-3.7L207.78-3.7ZM223.22-37.05L229.38-37.7 229.38 0 223.22 0 223.22-37.05ZM236.72-26.45L242.72-26.45 235.72-14.75 243.32 0 236.72 0 229.63-14.45 236.72-26.45ZM262.77-6.4Q262.77-5.1 263.12-4.48 263.47-3.85 264.27-3.45L264.27-3.45 263.02 0.65Q260.97 0.4 259.75-0.45 258.52-1.3 257.92-3.05L257.92-3.05Q255.62 0.75 251.47 0.75L251.47 0.75Q248.17 0.75 246.22-1.48 244.27-3.7 244.27-7.4L244.27-7.4Q244.27-11.7 246.95-13.95 249.62-16.2 254.72-16.2L254.72-16.2 256.77-16.2 256.77-18.05Q256.77-20.55 255.9-21.58 255.02-22.6 253.07-22.6L253.07-22.6Q250.72-22.6 247.22-21.3L247.22-21.3 245.82-25.3Q247.82-26.2 249.97-26.68 252.12-27.15 254.07-27.15L254.07-27.15Q262.77-27.15 262.77-18.35L262.77-18.35 262.77-6.4ZM253.12-3.7Q255.52-3.7 256.77-7L256.77-7 256.77-12.55 255.32-12.55Q252.77-12.55 251.6-11.4 250.42-10.25 250.42-7.85L250.42-7.85Q250.42-5.8 251.12-4.75 251.82-3.7 253.12-3.7L253.12-3.7ZM275.92-27.15Q280.62-27.15 283.87-24.05L283.87-24.05 281.52-20.7Q280.12-21.7 278.87-22.2 277.62-22.7 276.32-22.7L276.32-22.7Q274.87-22.7 274.05-21.93 273.22-21.15 273.22-19.8L273.22-19.8Q273.22-18.45 274.15-17.63 275.07-16.8 277.87-15.7L277.87-15.7Q281.32-14.35 282.97-12.5 284.62-10.65 284.62-7.55L284.62-7.55Q284.62-3.7 281.92-1.48 279.22 0.75 275.07 0.75L275.07 0.75Q272.37 0.75 270.1-0.23 267.82-1.2 266.12-2.95L266.12-2.95 269.12-6.25Q271.92-3.8 274.82-3.8L274.82-3.8Q276.47-3.8 277.42-4.67 278.37-5.55 278.37-7.1L278.37-7.1Q278.37-8.25 277.97-8.97 277.57-9.7 276.57-10.33 275.57-10.95 273.57-11.7L273.57-11.7Q270.12-13.05 268.65-14.85 267.17-16.65 267.17-19.45L267.17-19.45Q267.17-22.8 269.55-24.98 271.92-27.15 275.92-27.15L275.92-27.15ZM307.32-13.85Q307.32-13.4 307.17-11.3L307.17-11.3 293.52-11.3Q293.72-7.2 294.94-5.58 296.17-3.95 298.42-3.95L298.42-3.95Q299.97-3.95 301.22-4.48 302.47-5 303.92-6.15L303.92-6.15 306.47-2.65Q302.97 0.75 298.07 0.75L298.07 0.75Q292.87 0.75 290.09-2.85 287.32-6.45 287.32-13L287.32-13Q287.32-19.55 289.97-23.35 292.62-27.15 297.47-27.15L297.47-27.15Q302.12-27.15 304.72-23.78 307.32-20.4 307.32-13.85L307.32-13.85ZM301.32-15.3L301.32-15.65Q301.32-19.4 300.42-21.13 299.52-22.85 297.52-22.85L297.52-22.85Q295.67-22.85 294.69-21.18 293.72-19.5 293.52-15.3L293.52-15.3 301.32-15.3Z" opacity="1" transform="matrix(1,0,0,1,0,0)" fill="#ffffff" class="wordmark-text-0" data-fill-palette-color="primary" id="text-0"></path></svg></g></svg></g></svg></g></svg></g><g></g></svg></g></svg></g></svg></g><defs></defs></svg><rect width="320" height="360" fill="none" stroke="none" visibility="hidden"></rect></g></svg></g></svg>