<svg xmlns="http://www.w3.org/2000/svg" version="1.1" xmlns:xlink="http://www.w3.org/1999/xlink" xmlns:svgjs="http://svgjs.dev/svgjs" width="128" height="128" viewBox="0 0 128 128"><g transform="matrix(0.44782608695652176,0,0,0.44782608695652176,35.33913043478261,12.5)"><svg viewBox="0 0 125 225" data-background-color="#f9f9f9" preserveAspectRatio="xMidYMid meet" height="230" width="128" xmlns="http://www.w3.org/2000/svg" xmlns:xlink="http://www.w3.org/1999/xlink"><g id="tight-bounds" transform="matrix(1,0,0,1,0,0)"><svg viewBox="0 0 125 225" height="225" width="125"><g><svg></svg></g><g><svg viewBox="0 0 125 225" height="225" width="125"><g><path d="M8.188 130.945l1.455 1.82-0.727-2.366c-0.182-1.092-1.456 0.182-0.728 0.546M9.825 129.854c0.546 0.91 1.092 1.82 1.092 2.729 0 1.274 1.092 1.82 2.001 2.183-1.274-1.456-2.001-5.459-3.093-4.912M79.694 52.707c3.093 0 6.004-0.364 9.28 0.363 8.006 2.001 14.738 6.004 19.287 11.645l12.736 20.379c0.546 5.095 1.638 10.735 1.456 16.921 1.274 0 1.092-1.82 2.547-2.183-1.456 3.639-2.183 8.188-2.547 13.464-0.91-2.911 0-7.278 0.182-9.643-1.274 2.001-2.001 0.546-2.002-0.364 0.182-1.456-0.546-1.274-1.092-1.82-2.001-1.82-3.275-3.821-4.73-6.914 0.91-2.365 1.092-5.822-1.82-7.642-0.91-0.546-2.001-1.456-2.547-2.911-0.728-2.001-2.001-4.367-1.638-7.46 0.182-0.91-2.729 2.001-4.366 0.728-7.096-4.913-14.192-10.553-22.744-15.284-4.549 0-7.824-1.638-9.462-3.639-1.456-1.82-0.364-4.185 1.82-4.367 1.274 0 2.729-0.364 3.821 0.364 0.182-0.728 0.91-1.638 1.819-1.637M61.681 48.522l0.364 0.182c1.82 0.364 2.729 2.911 4.731 2.001 0 1.274 0.182 2.547-0.182 3.457-0.546 1.456-2.183 1.456-3.457 1.456-12.191-0.728-19.287 4.367-26.747 8.733-2.001 1.274-4.185 2.183-5.822 3.821-7.824 7.278-16.376 14.01-18.377 27.475l-1.638 14.92c-0.182 1.638-2.001 3.275-1.637 5.276l1.273 8.916c-1.274-1.274-2.001 0.364-1.637 1.092 0.182 0.546 0.91 2.365 2.001 0.727 1.456 2.729 2.911 8.006 4.913 10.372 6.186 7.278 14.192 13.828 20.742 20.378 1.638-0.364 2.911-0.364 3.275-1.456 0.546 1.092-0.546 2.183-1.455 2.366 2.911 1.82 6.186 3.457 10.553 3.821 5.64 0.364 10.917 1.274 15.829 2.547 2.547-0.728 5.095-1.092 7.824-1.274 0.91 0 1.456-1.456 2.548-1.819l0.182-1.82c1.092 1.638 0.91-0.546 0.182-1.637 1.274 1.092 1.638 2.001 2.183 2.729 0-0.546 1.456-2.547 1.456-0.182l0.363-2.365c0.546-0.364 0.728 2.001 1.274 0.364 0.546-1.638 1.638-0.364 2.729-0.91-0.364 0.728-0.182 2.183 1.092 1.274l1.456-1.274c0.91 2.183 2.365 1.274 3.093 0.91 8.006-5.095 16.012-11.099 23.653-17.104l-0.182 2.366 0.91-2.911c0.91 0.91 1.638 0.182 2.002-0.364 1.092-1.82 2.547-3.639 4.912-5.277-2.911 7.824-6.368 14.01-10.735 19.105l-1.819 2.183c0 1.274-0.364 2.911-1.82 3.093-0.728 0.182-2.183-0.364-3.275 0.728-0.546 0.728 1.274 2.183-0.182 1.092-1.274-0.91-2.547 0-4.003 0.364-1.092 0.364 0.728 1.456 1.092 2.183 0.364 0.728 0.728 1.456 0.546 2.366l-2.002-2.184c-2.365 1.274-3.821 3.639-5.822 5.459-0.91 0.728-0.546 2.001-0.546 3.093-1.274 0-2.729-0.364-3.457 0.364-0.546 0.728-0.364 1.82-0.364 2.911-1.82-0.182-2.001-2.911-3.639-2.365-1.638 0.364-3.457 0.546-4.913 1.455 1.092 2.183-1.82 0.91-1.455 1.274-2.729-1.638-5.095-2.911-8.006-1.82-6.186-2.001-13.828-1.092-19.469-0.364 0-0.91 0.182-1.82-0.182-2.001-0.364 0.91-1.456 0.546-1.273 0.546-3.457-2.365-6.914-3.821-10.553-5.823-3.275 0.364-6.368-1.274-7.278-2.183-2.547-2.365-5.459-1.092-7.824-1.638-5.095-1.274-6.914-6.55-7.46-10.189-0.364-1.82-1.82-2.547-2.366-2.365-2.365-7.642-6.004-14.556-8.915-21.652-0.728-1.82-0.546-3.639-0.546-5.641 0.91 0.364 1.82 0.182 1.638-1.091-0.91-6.004-3.093-10.553-5.459-14.92 1.274-6.186 1.456-13.464 4.367-18.923 2.547-4.913 7.278-7.46 10.553-11.645 1.092-1.456 1.092-3.457 2.183-4.731 3.639-3.639 7.278-7.46 11.281-10.735 1.82-1.456 4.003 0 6.732-0.546 0.91-3.275 4.549-6.186 8.006-5.276 1.456 0.364 4.367-3.457 5.277-3.821 1.456-0.546 0.728 1.456 0.728 2.729 3.457-2.729 8.188-4.185 12.554-5.822" fill="#ffffff" fill-rule="nonzero" stroke="none" stroke-width="1" stroke-linecap="butt" stroke-linejoin="miter" stroke-miterlimit="10" stroke-dasharray="" stroke-dashoffset="0" font-family="none" font-weight="none" font-size="none" text-anchor="none" style="mix-blend-mode: normal" data-fill-palette-color="tertiary"></path></g><g transform="matrix(1,0,0,1,39.325,97.21436170212766)"><svg viewBox="0 0 46.35 30.57127659574468" height="30.57127659574468" width="46.35"><g><svg viewBox="0 0 46.35 30.57127659574468" height="30.57127659574468" width="46.35"><g><svg viewBox="0 0 46.35 30.57127659574468" height="30.57127659574468" width="46.35"><g id="textblocktransform"><svg viewBox="0 0 46.35 30.57127659574468" height="30.57127659574468" width="46.35" id="textblock"><g><svg viewBox="0 0 46.35 30.57127659574468" height="30.57127659574468" width="46.35"><g transform="matrix(1,0,0,1,0,0)"><svg width="46.35" viewBox="0.4 -27.15 42.300000000000004 27.9" height="30.57127659574468" data-palette-color="#030303"><path d="M10.2-27.15Q14.9-27.15 18.15-24.05L18.15-24.05 15.8-20.7Q14.4-21.7 13.15-22.2 11.9-22.7 10.6-22.7L10.6-22.7Q9.15-22.7 8.33-21.93 7.5-21.15 7.5-19.8L7.5-19.8Q7.5-18.45 8.43-17.63 9.35-16.8 12.15-15.7L12.15-15.7Q15.6-14.35 17.25-12.5 18.9-10.65 18.9-7.55L18.9-7.55Q18.9-3.7 16.2-1.48 13.5 0.75 9.35 0.75L9.35 0.75Q6.65 0.75 4.38-0.23 2.1-1.2 0.4-2.95L0.4-2.95 3.4-6.25Q6.2-3.8 9.1-3.8L9.1-3.8Q10.75-3.8 11.7-4.67 12.65-5.55 12.65-7.1L12.65-7.1Q12.65-8.25 12.25-8.97 11.85-9.7 10.85-10.33 9.85-10.95 7.85-11.7L7.85-11.7Q4.4-13.05 2.93-14.85 1.45-16.65 1.45-19.45L1.45-19.45Q1.45-22.8 3.83-24.98 6.2-27.15 10.2-27.15L10.2-27.15ZM32.15-27.15Q37.15-27.15 39.92-23.65 42.7-20.15 42.7-13.25L42.7-13.25Q42.7-6.65 39.9-2.95 37.1 0.75 32.15 0.75L32.15 0.75Q27.2 0.75 24.4-2.88 21.6-6.5 21.6-13.25L21.6-13.25Q21.6-19.95 24.4-23.55 27.2-27.15 32.15-27.15L32.15-27.15ZM32.15-22.5Q30-22.5 29-20.38 28-18.25 28-13.25L28-13.25Q28-8.2 29-6.08 30-3.95 32.15-3.95L32.15-3.95Q34.3-3.95 35.3-6.08 36.3-8.2 36.3-13.25L36.3-13.25Q36.3-18.3 35.3-20.4 34.3-22.5 32.15-22.5L32.15-22.5Z" opacity="1" transform="matrix(1,0,0,1,0,0)" fill="#ffffff" class="wordmark-text-0" data-fill-palette-color="primary" id="text-0"></path></svg></g></svg></g></svg></g></svg></g><g></g></svg></g></svg></g></svg></g><defs></defs></svg><rect width="125" height="225" fill="none" stroke="none" visibility="hidden"></rect></g></svg></g></svg>